<?xml version="1.0" standalone="no"?>
<!DOCTYPE svg PUBLIC "-//W3C//DTD SVG 20010904//EN"
 "http://www.w3.org/TR/2001/REC-SVG-20010904/DTD/svg10.dtd">
<svg version="1.0" xmlns="http://www.w3.org/2000/svg"
 width="1200.000000pt" height="1200.000000pt" viewBox="0 0 1200.000000 1200.000000"
 preserveAspectRatio="xMidYMid meet">

<g transform="translate(0.000000,1200.000000) scale(0.100000,-0.100000)"
fill="#000000" stroke="none">
<path d="M5635 11989 c-1653 -100 -3185 -877 -4246 -2151 -1317 -1582 -1731
-3725 -1097 -5687 533 -1651 1770 -2999 3373 -3678 569 -241 1154 -387 1800
-450 252 -24 818 -24 1070 0 1034 101 1955 427 2800 991 1113 742 1958 1857
2370 3126 749 2306 42 4831 -1794 6409 -1006 865 -2235 1361 -3568 1441 -194
11 -513 11 -708 -1z m790 -1485 c932 -82 1852 -478 2559 -1102 1348 -1190
1864 -3026 1335 -4753 -156 -511 -447 -1055 -792 -1483 -117 -145 -145 -176
-296 -330 -908 -924 -2127 -1407 -3423 -1355 -1032 42 -2031 443 -2798 1125
-461 409 -809 866 -1075 1409 -253 517 -393 1026 -446 1615 -16 185 -13 595 6
795 182 1911 1548 3501 3405 3965 499 124 989 161 1525 114z"/>
</g>
</svg>
