<?xml version="1.0" standalone="no"?>
<!DOCTYPE svg PUBLIC "-//W3C//DTD SVG 20010904//EN"
 "http://www.w3.org/TR/2001/REC-SVG-20010904/DTD/svg10.dtd">
<svg version="1.0" xmlns="http://www.w3.org/2000/svg"
 width="981.000000pt" height="980.000000pt" viewBox="0 0 981.000000 980.000000"
 preserveAspectRatio="xMidYMid meet">

<g transform="translate(0.000000,980.000000) scale(0.100000,-0.100000)"
fill="#000000" stroke="none">
<path d="M1369 9782 c-133 -44 -210 -112 -640 -557 -85 -88 -239 -241 -344
-340 -198 -189 -277 -279 -346 -396 l-42 -70 26 -106 c66 -269 224 -489 602
-842 105 -97 728 -716 1385 -1375 l1195 -1198 -1206 -1201 c-663 -661 -1293
-1294 -1400 -1407 -492 -520 -530 -565 -569 -668 -55 -145 -27 -278 95 -439
25 -35 164 -176 308 -315 144 -138 302 -295 351 -347 274 -294 393 -402 526
-482 l70 -41 77 17 c156 34 311 109 459 221 128 96 227 190 418 394 94 102
711 723 1370 1380 l1198 1195 1152 -1157 c1158 -1164 1309 -1313 1733 -1709
242 -227 287 -263 381 -307 48 -23 71 -27 147 -27 83 0 96 3 165 36 41 20 98
54 126 75 28 21 295 285 593 586 448 452 544 553 557 590 22 62 29 186 15 260
-16 82 -85 224 -152 313 -29 39 -720 738 -1536 1555 l-1483 1485 1154 1150
c636 633 1239 1238 1342 1345 318 332 580 616 614 664 112 164 118 310 18 481
-43 72 -154 188 -503 526 -88 85 -245 244 -348 352 -185 194 -308 299 -412
353 l-50 27 -105 -27 c-194 -48 -387 -163 -597 -353 -47 -43 -187 -188 -313
-323 -125 -135 -269 -283 -321 -329 -52 -47 -565 -554 -1140 -1128 l-1045
-1044 -1077 1084 c-1210 1218 -1941 1930 -2081 2027 -123 84 -253 109 -367 72z"/>
</g>
</svg>
